<svg width="33" height="32" viewBox="0 0 33 32" fill="none" xmlns="http://www.w3.org/2000/svg">
<path d="M13.9459 14.6946C13.6972 14.8722 13.3775 14.9788 12.9867 14.9788H10.7842V12.6697H12.8446C13.0578 12.6697 13.2354 12.6697 13.413 12.7052C13.5906 12.7407 13.7327 12.8118 13.8748 12.8828C14.0169 12.9894 14.1235 13.096 14.1945 13.238C14.2656 13.3801 14.3011 13.5933 14.3011 13.8064C14.3011 14.1972 14.1945 14.5169 13.9459 14.6946Z" fill="#EA0E15"/>
<path d="M13.6972 19.0996C13.5196 19.1351 13.3064 19.1707 13.0933 19.1707H10.7842V16.4353H13.1288C13.5906 16.4353 13.9814 16.5418 14.2656 16.755C14.5498 17.0037 14.6919 17.3589 14.6919 17.8562C14.6919 18.1049 14.6208 18.3181 14.5498 18.4957C14.4432 18.6733 14.3366 18.7799 14.1945 18.8865C14.0524 18.993 13.8748 19.0641 13.6972 19.0996Z" fill="#EA0E15"/>
<path d="M21.0863 15.0143C21.5481 15.0143 21.9389 15.1564 22.1876 15.405C22.4363 15.6537 22.6139 16.009 22.6849 16.5418H19.4877C19.4877 16.4241 19.5121 16.3064 19.5407 16.1685C19.5466 16.1399 19.5527 16.1105 19.5588 16.08C19.5943 15.9024 19.6653 15.7248 19.8074 15.5827C19.9495 15.4406 20.0916 15.2985 20.3048 15.1919C20.5179 15.0853 20.7666 15.0143 21.0863 15.0143Z" fill="#EA0E15"/>
<path fill-rule="evenodd" clip-rule="evenodd" d="M5.61719 0C2.85576 0 0.617188 2.23858 0.617188 5V27C0.617188 29.7614 2.85576 32 5.61719 32H27.6172C30.3786 32 32.6172 29.7614 32.6172 27V5C32.6172 2.23858 30.3786 0 27.6172 0H5.61719ZM14.5498 11.1421C14.159 11.0355 13.7327 11 13.2709 11H8.61719V20.8048H13.3775C13.8038 20.8048 14.2301 20.7337 14.6564 20.6272C15.0827 20.5206 15.4734 20.343 15.7932 20.1298C16.1129 19.9167 16.3971 19.597 16.5747 19.2417C16.7523 18.8865 16.8589 18.4602 16.8589 17.9628C16.8589 17.3589 16.6813 16.826 16.3971 16.3997C16.1129 15.9734 15.6511 15.6537 15.0471 15.4761C15.4734 15.263 15.8287 14.9788 16.0418 14.659C16.2905 14.3393 16.3971 13.913 16.3971 13.4157C16.3971 12.9894 16.326 12.5986 16.1839 12.2789C16.0418 11.9592 15.8287 11.7105 15.5445 11.5329C15.2603 11.3552 14.9406 11.2131 14.5498 11.1421ZM21.2284 19.5614C20.66 19.5614 20.2337 19.4193 19.9495 19.1351C19.6653 18.8509 19.4522 18.3181 19.4522 17.7497H24.6033C24.6388 17.1813 24.6033 16.6839 24.5322 16.1866C24.3901 15.6892 24.177 15.2274 23.8928 14.8367C23.6086 14.4104 23.2533 14.1262 22.7915 13.8775C22.3297 13.6288 21.7968 13.5222 21.1929 13.5222C20.6245 13.5222 20.1627 13.6288 19.7009 13.8064C19.2746 13.9841 18.8838 14.2683 18.5641 14.588C18.2444 14.9432 17.9957 15.334 17.8181 15.7958C17.6404 16.2576 17.5694 16.755 17.5694 17.2879C17.5694 17.8562 17.6404 18.3536 17.8181 18.8154C17.9602 19.2772 18.2088 19.668 18.5285 19.9877C18.8483 20.343 19.2035 20.5916 19.6653 20.7693C20.1272 20.9469 20.6245 21.0535 21.1929 21.0535C22.01 21.0535 22.6849 20.8403 23.2533 20.4851C23.8217 20.0943 24.248 19.4904 24.5322 18.6378H22.7915C22.7204 18.8509 22.5428 19.0641 22.2586 19.2772C21.9744 19.4549 21.6192 19.5614 21.2284 19.5614ZM23.0402 11.675H19.0614V12.6341H23.0402V11.675Z" fill="#EA0E15"/>
</svg>
