<svg width="33" height="32" viewBox="0 0 33 32" fill="none" xmlns="http://www.w3.org/2000/svg">
<path fill-rule="evenodd" clip-rule="evenodd" d="M0.617188 5C0.617188 2.23858 2.85576 0 5.61719 0H27.6172C30.3786 0 32.6172 2.23858 32.6172 5V27C32.6172 29.7614 30.3786 32 27.6172 32H5.61719C2.85576 32 0.617188 29.7614 0.617188 27V5ZM16.6172 8C21.0172 8 24.6172 11.6 24.6172 16C24.6172 20 21.7172 23.4 17.7172 24V18.3H19.6172L20.0172 16H17.8172V14.5C17.8172 13.9 18.1172 13.3 19.1172 13.3H20.1172V11.3C20.1172 11.3 19.2172 11.1 18.3172 11.1C16.5172 11.1 15.3172 12.2 15.3172 14.2V16H13.3172V18.3H15.3172V23.9C11.5172 23.3 8.61719 20 8.61719 16C8.61719 11.6 12.2172 8 16.6172 8Z" fill="#EA0E15"/>
</svg>
