<svg width="33" height="32" viewBox="0 0 33 32" fill="none" xmlns="http://www.w3.org/2000/svg">
<path d="M16.6172 18.8C15.1172 18.8 13.8172 17.6 13.8172 16C13.8172 14.5 15.0172 13.2 16.6172 13.2C18.1172 13.2 19.4172 14.4 19.4172 16C19.4172 17.5 18.1172 18.8 16.6172 18.8Z" fill="#EA0E15"/>
<path fill-rule="evenodd" clip-rule="evenodd" d="M20.0172 9.2H13.2172C12.4172 9.3 12.0172 9.4 11.7172 9.5C11.3172 9.6 11.0172 9.8 10.7172 10.1C10.4798 10.3374 10.3676 10.5748 10.2321 10.8617C10.1963 10.9373 10.1589 11.0166 10.1172 11.1C10.1017 11.1464 10.0839 11.1952 10.0647 11.2475C9.96009 11.5333 9.81719 11.9238 9.81719 12.6V19.4C9.91719 20.2 10.0172 20.6 10.1172 20.9C10.2172 21.3 10.4172 21.6 10.7172 21.9C10.9546 22.1374 11.192 22.2495 11.4789 22.3851C11.5546 22.4209 11.6337 22.4583 11.7172 22.5C11.7636 22.5155 11.8124 22.5333 11.8647 22.5525C12.1505 22.6571 12.5409 22.8 13.2172 22.8H20.0172C20.8172 22.7 21.2172 22.6 21.5172 22.5C21.9172 22.4 22.2172 22.2 22.5172 21.9C22.7546 21.6626 22.8667 21.4252 23.0023 21.1383C23.038 21.0626 23.0755 20.9835 23.1172 20.9C23.1327 20.8536 23.1505 20.8048 23.1697 20.7525C23.2743 20.4667 23.4172 20.0762 23.4172 19.4V12.6C23.3172 11.8 23.2172 11.4 23.1172 11.1C23.0172 10.7 22.8172 10.4 22.5172 10.1C22.2798 9.86261 22.0424 9.75045 21.7555 9.61488C21.6799 9.57918 21.6005 9.54167 21.5172 9.5C21.4708 9.48453 21.422 9.46666 21.3697 9.44752C21.0839 9.3429 20.6934 9.2 20.0172 9.2ZM16.6172 11.7C14.2172 11.7 12.3172 13.6 12.3172 16C12.3172 18.4 14.2172 20.3 16.6172 20.3C19.0172 20.3 20.9172 18.4 20.9172 16C20.9172 13.6 19.0172 11.7 16.6172 11.7ZM22.0172 11.6C22.0172 12.1523 21.5695 12.6 21.0172 12.6C20.4649 12.6 20.0172 12.1523 20.0172 11.6C20.0172 11.0477 20.4649 10.6 21.0172 10.6C21.5695 10.6 22.0172 11.0477 22.0172 11.6Z" fill="#EA0E15"/>
<path fill-rule="evenodd" clip-rule="evenodd" d="M0.617188 5C0.617188 2.23858 2.85576 0 5.61719 0H27.6172C30.3786 0 32.6172 2.23858 32.6172 5V27C32.6172 29.7614 30.3786 32 27.6172 32H5.61719C2.85576 32 0.617188 29.7614 0.617188 27V5ZM13.2172 7.7H20.0172C20.9172 7.8 21.5172 7.9 22.0172 8.1C22.6172 8.4 23.0172 8.6 23.5172 9.1C24.0172 9.6 24.3172 10.1 24.5172 10.6C24.7172 11.1 24.9172 11.7 24.9172 12.6V19.4C24.8172 20.3 24.7172 20.9 24.5172 21.4C24.2172 22 24.0172 22.4 23.5172 22.9C23.0172 23.4 22.5172 23.7 22.0172 23.9C21.5172 24.1 20.9172 24.3 20.0172 24.3H13.2172C12.3172 24.2 11.7172 24.1 11.2172 23.9C10.6172 23.6 10.2172 23.4 9.71719 22.9C9.21719 22.4 8.91719 21.9 8.71719 21.4C8.51719 20.9 8.31719 20.3 8.31719 19.4V12.6C8.41719 11.7 8.51719 11.1 8.71719 10.6C9.01719 10 9.21719 9.6 9.71719 9.1C10.2172 8.6 10.7172 8.3 11.2172 8.1C11.7172 7.9 12.3172 7.7 13.2172 7.7Z" fill="#EA0E15"/>
</svg>
