<svg width="33" height="32" viewBox="0 0 33 32" fill="none" xmlns="http://www.w3.org/2000/svg">
<path fill-rule="evenodd" clip-rule="evenodd" d="M0.617188 5C0.617188 2.23858 2.85576 0 5.61719 0H27.6172C30.3786 0 32.6172 2.23858 32.6172 5V27C32.6172 29.7614 30.3786 32 27.6172 32H5.61719C2.85576 32 0.617188 29.7614 0.617188 27V5ZM8.81718 13.3V24H12.2172V13.3H8.81718ZM8.61719 9.9C8.61719 11 9.41719 11.8 10.5172 11.8C11.6172 11.8 12.4172 11 12.4172 9.9C12.4172 8.8 11.6172 8 10.5172 8C9.51719 8 8.61719 8.8 8.61719 9.9ZM21.2172 24H24.4172V17.4C24.4172 14.1 22.4172 13 20.5172 13C18.8172 13 17.6172 14.1 17.3172 14.8V13.3H14.1172V24H17.5172V18.3C17.5172 16.8 18.5172 16 19.5172 16C20.5172 16 21.2172 16.5 21.2172 18.2V24Z" fill="#EA0E15"/>
</svg>
